# xmcd
#
# Track frame offsets:
#	150
#	10049
#	21904
#	32746
#	42579
#	54296
#	67248
#	78409
#	86567
#	97464
#	107653
#	118557
#	128390
#	139857
#
# Disc length: 2017 seconds
#
# Revision: 0
# Processed by: cddbd v1.5.2PL0 Copyright (c) Steve Scherf et al.
# Submitted via: EasyCDDAExtractor 16.0.1.1
#
DISCID=ba07df0e
DTITLE=Jerry Byrd - Hi Fi Guitar
DYEAR=1958
DGENRE=Steel Guitar
TTITLE0=Slippery Elm
TTITLE1=Memphis Blues
TTITLE2=La Golondrina
TTITLE3=Remington Ride
TTITLE4=Moon Of Manakoora
TTITLE5=Dance Of The Goldenrod
TTITLE6=La Rosita
TTITLE7=Sweet Corn
TTITLE8=The One Rose
TTITLE9=Steelin' The Blues
TTITLE10=The Teenager's Waltz
TTITLE11=Come A Little Closer
TTITLE12=Paradise Waltz
TTITLE13=La Comparsita
EXTD=
EXTT0=
EXTT1=
EXTT2=
EXTT3=
EXTT4=
EXTT5=
EXTT6=
EXTT7=
EXTT8=
EXTT9=
EXTT10=
EXTT11=
EXTT12=
EXTT13=
PLAYORDER=
